DBRep_DrawableShape

CASCADE Topology V3, (c) Open Cascade
Locations 6
1
              1               0               0               2 
              0               1               0               0 
              0               0               1               0 
1
              1               0               0               0 
              0               1               0               0 
              0               0               1               2 
2  2 -1 0
2  1 -1 0
1
              1               0               0              -2 
              0               1               0               0 
              0               0               1               0 
2  5 -1 0
Curve2ds 60
1 0 0 0 -1 
1 15 0 0 -1 
1 20 0 0 -1 
1 0 0 0 -1 
1 20 -10 0 1 
1 0 0 1 0 
1 0 -2 1 0 
1 -7.5 10 0 -1 
1 0 0 1 0 
1 0 -2 1 0 
1 -7.5 10 0 -1 
1 0 0 0 -1 
1 0 0 1 0 
1 0 -2 1 0 
1 7.5 10 -1 0 
1 40 0 0 -1 
1 0 0 0 -1 
1 -7.5 10 1 0 
1 15 0 0 -1 
1 0 -0 0 -1 
1 20 0 0 -1 
1 -7.5 -10 1 0 
1 -7.5 -10 1 0 
1 0 0 1 0 
1 0 -2 1 0 
1 0 0 1 0 
1 0 -2 1 0 
1 -20 -10 1 0 
1 0 -0 1 0 
1 0 -2 1 0 
1 20 10 -1 0 
1 0 0 1 0 
1 0 -2 1 0 
1 -20 10 0 -1 
1 -7.5 -10 0 1 
1 7.5 -10 0 1 
1 -5.5 10 0 -1 
1 0 0 0 -1 
1 20 0 0 -1 
1 -7.5 10 1 0 
1 40 0 0 -1 
1 0 0 0 -1 
1 -7.5 -10 1 0 
1 0 0 0 -1 
1 15 0 0 -1 
1 20 0 0 -1 
1 0 0 0 -1 
1 0 0 1 0 
1 0 -2 1 0 
1 -7.5 10 0 -1 
1 -5.5 -10 0 1 
1 0 0 0 -1 
1 0 0 1 0 
1 0 -2 1 0 
1 7.5 10 -1 0 
1 15 0 0 -1 
1 -7.5 -10 1 0 
1 0 0 1 0 
1 0 -2 1 0 
1 7.5 -10 0 1 
Curves 24
1 40 0 0 1 0 0 
1 40 20 0 1 0 0 
1 40 0 0 0 1 0 
1 40 0 0 0 1 0 
1 40 0 15 1 0 0 
1 40 0 15 0 0 -1 
1 40 0 0 0 0 1 
1 40 20 15 1 0 0 
1 40 20 0 0 0 1 
1 40 20 0 0 0 1 
1 0 0 0 1 0 0 
1 40 20 0 -1 0 0 
1 0 20 0 0 -1 0 
1 40 20 15 0 -1 0 
1 0 0 0 0 0 1 
1 0 20 0 0 0 1 
1 0 0 0 -1 0 0 
1 0 20 0 -1 0 0 
1 0 0 0 0 1 0 
1 0 0 15 -1 0 0 
1 0 0 15 0 0 -1 
1 0 20 15 -1 0 0 
1 0 20 0 0 0 1 
1 0 20 15 0 -1 0 
Polygon3D 0
PolygonOnTriangulations 0
Surfaces 15
1 40 0 0 0 0 1 0 1 0 -1 0 0 
1 40 0 15 -0 1 0 0 0 -1 -1 0 -0 
1 40 20 0 0 -1 0 0 0 1 -1 0 0 
1 20 10 0 0 0 1 1 0 -0 -0 1 0 
1 40 0 0 -1 0 0 0 1 0 0 0 -1 
1 40 10 7.5 1 0 0 -0 0 1 0 -1 0 
1 0 0 0 0 1 0 1 0 0 0 0 -1 
1 40 20 0 0 -1 0 -1 0 0 -0 -0 -1 
1 0 20 0 1 0 -0 0 -1 0 0 -0 -1 
1 0 10 7.5 1 0 0 -0 0 1 0 -1 0 
1 40 20 15 0 0 -1 0 -1 0 -1 -0 -0 
1 0 0 0 0 0 -1 0 1 0 1 -0 0 
1 0 0 15 -0 -1 -0 0 0 -1 1 -0 0 
1 0 20 0 0 1 -0 0 0 1 1 -0 0 
1 0 20 15 0 0 1 0 -1 0 1 0 -0 
Triangulations 0

TShapes 83
Ve
1.00000000666134e-07
40 0 0
0 0

0101101
*
Ve
1e-07
40 0 0
0 0

0101101
*
Ed
 1e-07 1 1 0
1  1 0 0 2
2  1 1 0 0 2
2  2 2 0 0 2
0

0101000
+83 0 -82 1 *
Ve
1e-07
40 20 0
0 0

0101101
*
Ve
1e-07
40 20 0
0 0

0101101
*
Ed
 1e-07 1 1 0
1  2 0 0 2
2  3 1 0 0 2
2  4 3 0 0 2
0

0101000
+80 0 -79 1 *
Ed
 1e-07 1 1 0
1  3 0 0 20
2  5 4 0 0 20
2  6 5 0 0 20
2  7 5 3 0 20
2  8 6 0 0 20
0

0101000
+83 0 -80 0 *
Ed
 1e-07 1 1 0
1  4 0 0 20
2  9 1 0 0 20
2  10 1 4 0 20
2  11 6 0 0 20
0

0101000
+82 0 -79 0 *
Wi

0101100
+81 0 -78 0 -77 0 +76 1 *
Fa
0  1e-07 1 0

0101000
+75 0 *
Ve
1e-07
40 0 15
0 0

0101101
*
Ed
 1e-07 1 1 0
1  5 0 0 2
2  12 2 0 0 2
0

0101000
+73 0 -73 1 *
Ve
1.00000000666134e-07
40 0 0
0 0

0101101
*
Ed
 1e-07 1 1 0
1  6 0 0 13
2  13 2 0 0 13
2  14 2 4 0 13
2  15 6 0 0 13
0

0101000
+73 0 -71 2 *
Ed
 1.00000000666134e-07 1 1 0
1  7 0 0 2
2  16 7 0 0 2
2  17 5 0 0 2
2  18 6 0 0 2
0

0101000
+83 0 -71 2 *
Ed
 1e-07 1 1 0
1  6 0 0 15
2  13 2 0 0 15
2  14 2 4 0 15
2  15 6 0 0 15
0

0101000
+73 0 -82 0 *
Wi

0101100
+72 0 -81 0 -70 0 +69 0 +68 1 *
Fa
0  1e-07 2 0

0101000
+67 0 *
Ve
1e-07
40 20 15
0 0

0101101
*
Ed
 1e-07 1 1 0
1  8 0 0 2
2  19 3 0 0 2
0

0101000
+65 0 -65 1 *
Ve
1e-07
40 20 0
0 0

0101101
*
Ed
 1e-07 1 1 0
1  9 0 0 2
2  20 8 0 0 2
2  21 5 0 0 2
2  22 6 0 0 2
0

0101000
+80 0 -63 2 *
Ed
 1e-07 1 1 0
1  10 0 2 15
2  23 6 0 2 15
2  24 3 0 2 15
2  25 3 4 2 15
0

0101000
+63 2 -65 0 *
Ed
 1e-07 1 1 0
1  10 0 0 15
2  23 6 0 0 15
2  24 3 0 0 15
2  25 3 4 0 15
0

0101000
+79 0 -65 0 *
Wi

0101100
+78 0 -64 0 -62 0 -61 0 +60 1 *
Fa
0  1e-07 3 0

0101000
+59 0 *
Ve
1.00000000666134e-07
0 0 0
0 0

0101101
*
Ed
 1e-07 1 1 0
1  11 0 0 40
2  26 7 0 0 40
2  27 7 3 0 40
2  28 4 0 0 40
0

0101000
+57 0 -83 0 *
Ve
1e-07
0 20 0
0 0

0101101
*
Ed
 1e-07 1 1 0
1  12 0 0 40
2  29 8 0 0 40
2  30 8 3 0 40
2  31 4 0 0 40
0

0101000
+80 0 -55 0 *
Ed
 1e-07 1 1 0
1  13 0 0 20
2  32 9 0 0 20
2  33 9 3 0 20
2  34 4 0 0 20
2  35 10 0 0 20
0

0101000
+55 0 -57 0 *
Wi

0101100
+56 0 +77 0 +54 0 +53 0 *
Fa
0  1e-07 4 0

0101000
+52 0 *
Ed
 1e-07 1 1 0
1  14 0 0 20
2  36 6 0 0 20
0

0101000
+65 0 -73 0 *
Wi

0101100
+76 0 +60 0 +50 0 +68 0 *
Fa
0  1e-07 6 0

0101000
+49 0 *
Wi

0101100
+64 0 -72 0 -50 0 +50 1 *
Fa
0  1e-07 11 0

0101000
+47 0 *
Ed
 1e-07 1 1 0
1  3 0 0 20
2  5 4 0 0 20
2  6 5 0 0 20
2  7 5 3 0 20
2  37 6 3 0 20
0

0101000
+71 0 -63 0 *
Wi

0101100
+70 0 +50 0 +61 0 +45 2 *
Fa
0  1e-07 6 0

0101000
+44 0 *
Ve
1.00000000666134e-07
0 0 0
0 0

0101101
*
Ed
 1.00000000666134e-07 1 1 0
1  15 0 0 2
2  38 7 0 0 2
2  39 9 0 0 2
2  40 10 0 0 2
0

0101000
+57 0 -42 2 *
Ed
 1e-07 1 1 0
1  11 0 0 40
2  26 7 0 0 40
2  27 7 3 0 40
2  28 4 0 0 40
0

0101000
+42 0 -71 0 *
Wi

0101100
+41 0 -69 0 -56 0 +40 2 *
Fa
0  1e-07 7 0

0101000
+39 0 *
Ve
1e-07
0 20 0
0 0

0101101
*
Ed
 1e-07 1 1 0
1  16 0 0 2
2  41 8 0 0 2
2  42 9 0 0 2
2  43 10 0 0 2
0

0101000
+55 0 -37 2 *
Ed
 1e-07 1 1 0
1  12 0 0 40
2  29 8 0 0 40
2  30 8 3 0 40
2  31 4 0 0 40
0

0101000
+63 0 -37 0 *
Wi

0101100
+62 0 -36 0 -54 0 +35 2 *
Fa
0  1e-07 8 0

0101000
+34 0 *
Ve
1e-07
0 0 0
0 0

0101101
*
Ed
 1e-07 1 1 0
1  17 0 0 2
2  44 12 0 0 2
2  45 13 0 0 2
0

0101000
+57 0 -32 5 *
Ve
1e-07
0 20 0
0 0

0101101
*
Ed
 1e-07 1 1 0
1  18 0 0 2
2  46 12 0 0 2
2  47 14 0 0 2
0

0101000
+55 0 -30 5 *
Ed
 1e-07 1 1 0
1  19 0 0 20
2  48 12 0 0 20
2  49 12 6 0 20
2  50 10 0 0 20
0

0101000
+32 0 -30 0 *
Wi

0101100
+31 0 -29 0 +53 0 +28 5 *
Fa
0  1e-07 12 0

0101000
+27 0 *
Ed
 1e-07 1 1 0
1  13 0 0 20
2  32 9 0 0 20
2  33 9 3 0 20
2  34 4 0 0 20
2  51 10 3 0 20
0

0101000
+37 0 -42 0 *
Wi

0101100
+40 0 +45 0 +35 0 +25 0 *
Fa
0  1e-07 4 0

0101000
+24 0 *
Ve
1e-07
0 0 15
0 0

0101101
*
Ed
 1e-07 1 1 0
1  20 0 0 2
2  52 13 0 0 2
0

0101000
+22 0 -22 5 *
Ed
 1e-07 1 1 0
1  21 0 0 13
2  53 13 0 0 13
2  54 13 6 0 13
2  55 10 0 0 13
0

0101000
+22 0 -42 2 *
Ed
 1e-07 1 1 0
1  21 0 0 15
2  53 13 0 0 15
2  54 13 6 0 15
2  55 10 0 0 15
0

0101000
+22 0 -32 0 *
Wi

0101100
+21 0 -31 0 -20 0 +41 0 +19 5 *
Fa
0  1e-07 13 0

0101000
+18 0 *
Ve
1e-07
0 20 15
0 0

0101101
*
Ed
 1e-07 1 1 0
1  22 0 0 2
2  56 14 0 0 2
0

0101000
+16 0 -16 5 *
Ed
 1e-07 1 1 0
1  23 0 2 15
2  57 10 0 2 15
2  58 14 0 2 15
2  59 14 6 2 15
0

0101000
+37 2 -16 0 *
Ed
 1e-07 1 1 0
1  23 0 0 15
2  57 10 0 0 15
2  58 14 0 0 15
2  59 14 6 0 15
0

0101000
+30 0 -16 0 *
Wi

0101100
+29 0 -15 0 -36 0 -14 0 +13 5 *
Fa
0  1e-07 14 0

0101000
+12 0 *
Ed
 1e-07 1 1 0
1  24 0 0 20
2  60 10 0 0 20
0

0101000
+16 0 -22 0 *
Wi

0101100
+28 0 +13 0 +10 0 +19 0 *
Fa
0  1e-07 10 0

0101000
+9 0 *
Wi

0101100
-25 2 +20 0 +10 0 +14 0 *
Fa
0  1e-07 10 0

0101000
+7 0 *
Wi

0101100
+15 0 -21 0 -10 0 +10 5 *
Fa
0  1e-07 15 0

0101000
+5 0 *
Sh

0101100
-74 0 -66 0 -58 0 -51 0 +48 1 -46 0 -43 0 -38 0 -33 0 +26 0 
+23 2 +17 0 +11 0 -8 5 +6 0 +4 0 *
So

0100000
+3 0 *
Co

1100000
+2 0 *

+1 0 