DBRep_DrawableShape

CASCADE Topology V3, (c) Open Cascade
Locations 6
1
              1               0               0               0 
              0               1               0               0 
              0               0               1               2 
2  1 -1 0
1
              1               0               0               2 
              0               1               0               0 
              0               0               1               0 
2  3 -1 0
1
              1               0               0              -2 
              0               1               0               0 
              0               0               1               0 
2  5 -1 0
Curve2ds 69
1 0 0 1 0 
1 0 -2 1 0 
1 -20 -10 1 0 
1 0 20 1 0 
2 1.4999999999999998 -3.4999999999999996 0 1 -1 0 1.5
1 40 0 0 -1 
1 0 0 0 -1 
1 -7.5 10 1 0 
1 0 0 0 -1 
1 15 0 -1 0 
1 20 0 0 -1 
1 -7.5 10 1 0 
1 0 0 0 1 
1 -18.5 10 0 -1 
1 20 -10 0 1 
1 0 0 1 0 
1 0 -2 1 0 
1 -5.5 10 0 -1 
1 0 -0 1 0 
1 0 -2 1 0 
1 20 10 -1 0 
1 0 0 1 0 
2 38.5 -3.4999999999999996 0 1 1 -0 1.5
1 1.5707963267948966 0 0 1 
1 -4 -10 0 1 
1 0 0 0 -1 
1 0 0 0 -1 
1 15 0 0 -1 
1 0 0 1 0 
1 0 -2 1 0 
1 7.5 10 -1 0 
1 0 0 1 0 
1 0 -2 1 0 
1 7.5 10 -1 0 
1 0 0 0 -1 
1 0 0 0 -1 
1 15 0 0 -1 
1 -7.5 10 0 -1 
1 0 0 1 0 
1 0 -2 1 0 
1 -20 10 0 -1 
1 -7.5 -10 0 1 
1 7.5 -10 0 1 
1 -7.5 -10 1 0 
1 0 0 1 0 
1 0 -2 1 0 
1 0 -0 0 -1 
1 20 0 0 -1 
1 -7.5 -10 1 0 
1 40 0 0 -1 
1 0 0 1 0 
1 0 0 0 -1 
1 -7.5 -10 1 0 
1 7.5 -10 0 1 
1 -7.5 -10 1 0 
1 0 0 1 0 
1 0 -2 1 0 
1 15 0 0 -1 
1 20 0 0 -1 
1 0 0 0 -1 
1 0 0 1 0 
1 0 -2 1 0 
1 -7.5 10 0 -1 
1 15 0 0 -1 
1 0 0 1 0 
1 0 -2 1 0 
1 -7.5 10 0 -1 
1 20 0 0 -1 
1 0 0 0 -1 
Curves 30
1 0 0 0 1 0 0 
8 0 1.5707963267948966
2 1.4999999999999998 0 3.4999999999999996 -0 1 -0 0 0 -1 -1 -0 -0 1.5
1 40 0 0 0 0 1 
8 2 3.4999999999999996
1 0 0 0 0 0 1 
1 0 0 0 0 0 1 
1 1.4999999999999998 20 1.9999999999999996 0 -1 0 
1 40 0 0 0 1 0 
1 40 20 0 -1 0 0 
8 0 1.5707963267948966
2 1.4999999999999998 20 3.4999999999999996 -0 1 -0 0 0 -1 -1 -0 -0 1.5
1 -2.2204460492503131e-16 20 3.4999999999999996 0 -1 0 
1 40 0 15 1 0 0 
1 40 0 0 1 0 0 
1 40 0 15 0 0 -1 
1 0 0 15 0 0 -1 
1 0 0 15 -1 0 0 
1 0 0 0 -1 0 0 
1 0 20 0 0 -1 0 
1 40 20 15 0 -1 0 
1 40 20 0 0 0 1 
1 40 20 0 0 0 1 
8 2 3.4999999999999996
1 0 20 0 0 0 1 
1 0 20 0 0 0 1 
1 0 20 15 0 -1 0 
1 0 20 0 0 0 1 
1 40 20 15 1 0 0 
1 40 20 0 1 0 0 
1 40 0 0 0 1 0 
1 0 20 15 -1 0 0 
1 0 0 0 0 1 0 
1 0 20 0 -1 0 0 
Polygon3D 0
PolygonOnTriangulations 0
Surfaces 16
1 0 0 0 0 1 0 1 0 0 0 0 -1 
1 20 10 0 0 0 1 1 0 -0 -0 1 0 
2 1.4999999999999998 20 3.4999999999999996 0 -1 0 -0 -0 -1 -1 -0 0 1.5
1 40 0 0 -1 0 0 0 1 0 0 0 -1 
1 40 10 7.5 1 0 0 -0 0 1 0 -1 0 
1 0 0 15 -0 -1 -0 0 0 -1 1 -0 0 
1 0 20 0 1 0 -0 0 -1 0 0 -0 -1 
1 0 10 7.5 1 0 0 -0 0 1 0 -1 0 
1 40 20 0 0 -1 0 -1 0 0 -0 -0 -1 
1 40 0 15 -0 1 0 0 0 -1 -1 0 -0 
1 40 0 0 0 0 1 0 1 0 -1 0 0 
1 0 0 0 0 0 -1 0 1 0 1 -0 0 
1 40 20 0 0 -1 0 0 0 1 -1 0 0 
1 0 20 0 0 1 -0 0 0 1 1 -0 0 
1 40 20 15 0 0 -1 0 -1 0 -1 -0 -0 
1 0 20 15 0 0 1 0 -1 0 1 0 -0 
Triangulations 0

TShapes 94
Ve
1e-07
1.5 0 2
0 0

0101101
*
Ve
1.00000000666134e-07
40 0 0
0 0

0101101
*
Ed
 1e-07 1 1 0
1  1 0 1.5 40
2  1 1 0 1.5 40
2  2 1 2 1.5 40
2  3 2 0 1.5 40
0

0101000
+94 2 -93 0 *
Ve
1.00000000666134e-06
-2.22044604925031e-16 0 3.5
0 0

0101101
*
Ed
 1e-07 1 1 0
1  2 0 0 1.5707963267949
2  4 3 0 0 1.5707963267949
2  5 1 0 0 1.5707963267949
0

0101000
+94 0 -91 0 *
Ve
1.00000000666134e-07
40 0 0
0 0

0101101
*
Ed
 1.00000000666134e-07 1 1 0
1  3 0 0 2
2  6 1 0 0 2
2  7 4 0 0 2
2  8 5 0 0 2
0

0101000
+89 0 -93 1 *
Ve
1.00000000666134e-06
0 0 0
0 0

0101101
*
Ed
 1.00000000666134e-06 1 1 0
1  4 0 2 3.5
2  9 1 0 2 3.5
2  10 6 0 2 3.5
0

0101000
+87 1 -91 0 *
Ve
1.00000000666134e-07
0 0 0
0 0

0101101
*
Ed
 1e-07 1 1 0
1  1 0 0 40
2  1 1 0 0 40
2  2 1 2 0 40
2  3 2 0 0 40
0

0101000
+85 0 -89 0 *
Ed
 1.00000000666134e-07 1 1 0
1  5 0 0 2
2  9 1 0 0 2
2  11 7 0 0 2
2  12 8 0 0 2
0

0101000
+85 0 -87 1 *
Wi

0101100
+92 1 -90 0 -88 0 +86 0 -84 0 +83 0 *
Fa
0  1e-07 1 0

0101000
+82 0 *
Ve
1e-07
1.5 20 2
0 0

0101101
*
Ed
 1e-07 1 1 0
1  6 0 -0 20
2  13 3 0 -0 20
2  14 2 1 -0 20
4 G1 3 0 2 1
0

0101000
+80 0 -94 0 *
Ve
1e-07
40 20 0
0 0

0101101
*
Ed
 1e-07 1 1 0
1  7 0 0 20
2  15 2 0 0 20
2  16 4 0 0 20
2  17 4 2 0 20
2  18 5 2 0 20
0

0101000
+93 0 -78 0 *
Ed
 1e-07 1 1 0
1  8 0 0 38.5
2  19 9 0 0 38.5
2  20 9 2 0 38.5
2  21 2 0 0 38.5
0

0101000
-80 2 +78 0 *
Wi

0101100
+92 1 +79 0 +77 1 +76 1 *
Fa
0  1e-07 2 0

0101000
+75 2 *
Ve
1e-06
-2.22044604925031e-16 20 3.5
0 0

0101101
*
Ed
 1e-07 1 1 0
1  9 0 0 1.5707963267949
2  22 3 0 0 1.5707963267949
2  23 9 0 0 1.5707963267949
0

0101000
+80 0 -73 0 *
Ed
 1e-07 1 1 0
1  10 0 0 20
2  24 3 0 0 20
2  25 8 0 0 20
4 G1 3 0 8 0
0

0101000
+73 0 -91 0 *
Wi

0101100
+72 0 -79 0 +71 0 -90 0 *
Fa
0  0 3 0

0101000
+70 0 *
Ve
1e-07
40 0 15
0 0

0101101
*
Ed
 1e-07 1 1 0
1  11 0 0 2
2  26 10 0 0 2
0

0101000
+68 0 -68 3 *
Ve
1e-07
40 0 0
0 0

0101101
*
Ed
 1e-07 1 1 0
1  12 0 0 2
2  27 11 0 0 2
2  28 10 0 0 2
0

0101000
+89 0 -66 3 *
Ed
 1e-07 1 1 0
1  13 0 0 13
2  29 10 0 0 13
2  30 10 4 0 13
2  31 5 0 0 13
0

0101000
+68 0 -93 1 *
Ed
 1e-07 1 1 0
1  13 0 0 15
2  29 10 0 0 15
2  30 10 4 0 15
2  31 5 0 0 15
0

0101000
+68 0 -66 0 *
Wi

0101100
+67 0 -65 0 -64 0 +88 0 +63 3 *
Fa
0  1e-07 10 0

0101000
+62 0 *
Ve
1e-07
0 0 15
0 0

0101101
*
Ed
 1e-07 1 1 0
1  14 0 0 11.5
2  32 6 0 0 11.5
2  33 6 6 0 11.5
2  34 8 0 0 11.5
0

0101000
-91 0 +60 0 *
Ed
 1e-07 1 1 0
1  15 0 0 2
2  35 6 0 0 2
0

0101000
+60 0 -60 5 *
Ve
1e-07
0 0 0
0 0

0101101
*
Ed
 1e-07 1 1 0
1  14 0 0 15
2  32 6 0 0 15
2  33 6 6 0 15
2  34 8 0 0 15
0

0101000
+60 0 -57 0 *
Ed
 1e-07 1 1 0
1  16 0 0 2
2  36 12 0 0 2
2  37 6 0 0 2
0

0101000
+85 0 -57 5 *
Wi

0101100
-59 0 +86 0 +58 0 +83 0 +56 5 -55 0 *
Fa
0  1e-07 6 0

0101000
+54 0 *
Ve
1e-07
40 20 0
0 0

0101101
*
Ed
 1e-07 1 1 0
1  7 0 0 20
2  15 2 0 0 20
2  16 4 0 0 20
2  17 4 2 0 20
2  38 5 0 0 20
0

0101000
+89 0 -52 0 *
Ve
1e-07
0 20 0
0 0

0101101
*
Ed
 1e-07 1 1 0
1  8 0 0 40
2  19 9 0 0 40
2  20 9 2 0 40
2  21 2 0 0 40
0

0101000
+52 0 -50 0 *
Ed
 1e-07 1 1 0
1  17 0 0 20
2  39 7 0 0 20
2  40 7 2 0 20
2  41 2 0 0 20
2  42 8 0 0 20
0

0101000
+50 0 -85 0 *
Wi

0101100
+84 0 +51 0 +49 0 +48 0 *
Fa
0  1e-07 2 0

0101000
+47 0 *
Ve
1e-07
40 20 15
0 0

0101101
*
Ed
 1e-07 1 1 0
1  18 0 0 20
2  43 5 0 0 20
0

0101000
+45 0 -68 0 *
Ed
 1e-07 1 1 0
1  19 0 2 15
2  44 5 0 2 15
2  45 13 0 2 15
2  46 13 4 2 15
0

0101000
+78 1 -45 0 *
Wi

0101100
+64 0 +44 0 +43 0 +77 1 *
Fa
0  1e-07 5 0

0101000
+42 0 *
Ed
 1e-07 1 1 0
1  20 0 0 2
2  47 9 0 0 2
2  48 4 0 0 2
2  49 5 0 0 2
0

0101000
+52 0 -78 1 *
Ve
1e-06
0 20 0
0 0

0101101
*
Ed
 1e-06 1 1 0
1  21 0 2 3.5
2  50 9 0 2 3.5
2  51 14 0 2 3.5
0

0101000
+39 1 -73 0 *
Ed
 1e-07 1 1 0
1  22 0 0 2
2  50 9 0 0 2
2  52 7 0 0 2
2  53 8 0 0 2
0

0101000
+50 0 -39 1 *
Wi

0101100
+76 1 +72 0 +40 0 -38 0 -49 0 -37 0 *
Fa
0  1e-07 9 0

0101000
+36 0 *
Ve
1e-07
0 20 15
0 0

0101101
*
Ed
 1e-07 1 1 0
1  23 0 0 20
2  54 8 0 0 20
0

0101000
+34 0 -60 0 *
Ed
 1e-07 1 1 0
1  24 0 3.5 15
2  55 8 0 3.5 15
2  56 14 0 3.5 15
2  57 14 6 3.5 15
0

0101000
+73 0 -34 0 *
Wi

0101100
+59 0 -71 0 +33 0 +32 0 *
Fa
0  1e-07 8 0

0101000
+31 0 *
Ed
 1e-07 1 1 0
1  25 0 0 2
2  58 13 0 0 2
0

0101000
+45 0 -45 3 *
Wi

0101100
+29 0 -67 0 -44 0 +44 3 *
Fa
0  1e-07 15 0

0101000
+28 0 *
Ve
1e-07
40 20 0
0 0

0101101
*
Ed
 1e-07 1 1 0
1  26 0 0 2
2  59 11 0 0 2
2  60 13 0 0 2
0

0101000
+52 0 -26 3 *
Ed
 1e-07 1 1 0
1  27 0 0 20
2  61 11 0 0 20
2  62 11 4 0 20
2  63 5 0 0 20
0

0101000
+66 0 -26 0 *
Wi

0101100
+65 0 -25 0 -51 0 +24 3 *
Fa
0  1e-07 11 0

0101000
+23 0 *
Ed
 1e-07 1 1 0
1  19 0 0 15
2  44 5 0 0 15
2  45 13 0 0 15
2  46 13 4 0 15
0

0101000
+26 0 -45 0 *
Wi

0101100
+24 0 +21 0 +44 0 +63 0 *
Fa
0  1e-07 5 0

0101000
+20 0 *
Ed
 1e-07 1 1 0
1  28 0 0 2
2  64 14 0 0 2
0

0101000
+34 0 -34 5 *
Wi

0101100
+18 0 -58 0 -33 0 +33 5 *
Fa
0  1e-07 16 0

0101000
+17 0 *
Ve
1e-07
0 20 0
0 0

0101101
*
Ed
 1e-07 1 1 0
1  29 0 0 20
2  65 12 0 0 20
2  66 12 6 0 20
2  67 8 0 0 20
0

0101000
+57 0 -15 0 *
Ed
 1e-07 1 1 0
1  24 0 0 15
2  55 8 0 0 15
2  56 14 0 0 15
2  57 14 6 0 15
0

0101000
+15 0 -34 0 *
Wi

0101100
+14 0 +13 0 +33 0 +56 0 *
Fa
0  1e-07 8 0

0101000
+12 0 *
Ed
 1e-07 1 1 0
1  30 0 0 2
2  68 12 0 0 2
2  69 14 0 0 2
0

0101000
+50 0 -15 5 *
Wi

0101100
+55 0 -10 0 +48 0 +14 5 *
Fa
0  1e-07 12 0

0101000
+9 0 *
Wi

0101100
+25 0 -29 0 -40 0 -43 0 +21 3 *
Fa
0  1e-07 13 0

0101000
+7 0 *
Wi

0101100
-32 0 -38 0 -18 0 -37 0 +13 5 +10 0 *
Fa
0  1e-07 14 0

0101000
+5 0 *
Sh

0101100
-81 0 +74 1 +69 0 -61 0 +53 0 -46 0 -41 0 -35 0 +30 0 -27 0 
-22 0 +19 3 +16 0 -11 5 +8 0 -6 0 +4 0 *
So

0100000
+3 0 *
Co

1100000
+2 0 *

+1 0 